0
SECTION
2
HEADER
9
$ACADVER
1
AC1009
0
ENDSEC
0
SECTION
2
TABLES
0
TABLE
2
LAYER
70
3
0
LAYER
2
0
70
0
62
7
6
CONTINUOUS
0
LAYER
2
ELEMENTS
70
0
62
7
6
CONTINUOUS
0
LAYER
2
NODES
70
0
62
3
6
CONTINUOUS
0
ENDTAB
0
ENDSEC
0
SECTION
2
BLOCKS
0
ENDSEC
0
SECTION
2
ENTITIES
0
POINT
8
NODES
10
0.0
20
0.0
30
0.0
0
POINT
8
NODES
10
3000.0
20
0.0
30
0.0
0
POINT
8
NODES
10
0.0
20
4500.0
30
2598.076211353316
0
POINT
8
NODES
10
3000.0
20
4500.0
30
2598.076211353316
0
POINT
8
NODES
10
0.0
20
6000.0
30
0.0
0
POINT
8
NODES
10
3000.0
20
6000.0
30
0.0
0
POINT
8
NODES
10
0.0
20
9000.0
30
5196.152422706632
0
POINT
8
NODES
10
3000.0
20
9000.0
30
5196.152422706632
0
POINT
8
NODES
10
0.0
20
12000.0
30
0.0
0
POINT
8
NODES
10
3000.0
20
12000.0
30
0.0
0
POINT
8
NODES
10
0.0
20
13500.0
30
2598.076211353316
0
POINT
8
NODES
10
3000.0
20
13500.0
30
2598.076211353316
0
POINT
8
NODES
10
0.0
20
18000.0
30
0.0
0
POINT
8
NODES
10
3000.0
20
18000.0
30
0.0
0
LINE
8
ELEMENTS
10
0.0
20
0.0
30
0.0
11
0.0
21
6000.0
31
0.0
0
LINE
8
ELEMENTS
10
0.0
20
0.0
30
0.0
11
0.0
21
4500.0
31
2598.076211353316
0
LINE
8
ELEMENTS
10
0.0
20
4500.0
30
2598.076211353316
11
0.0
21
6000.0
31
0.0
0
LINE
8
ELEMENTS
10
0.0
20
4500.0
30
2598.076211353316
11
0.0
21
9000.0
31
5196.152422706632
0
LINE
8
ELEMENTS
10
0.0
20
6000.0
30
0.0
11
0.0
21
9000.0
31
5196.152422706632
0
LINE
8
ELEMENTS
10
0.0
20
6000.0
30
0.0
11
0.0
21
12000.0
31
0.0
0
LINE
8
ELEMENTS
10
0.0
20
9000.0
30
5196.152422706632
11
0.0
21
12000.0
31
0.0
0
LINE
8
ELEMENTS
10
0.0
20
9000.0
30
5196.152422706632
11
0.0
21
13500.0
31
2598.076211353316
0
LINE
8
ELEMENTS
10
0.0
20
12000.0
30
0.0
11
0.0
21
13500.0
31
2598.076211353316
0
LINE
8
ELEMENTS
10
0.0
20
12000.0
30
0.0
11
0.0
21
18000.0
31
0.0
0
LINE
8
ELEMENTS
10
0.0
20
13500.0
30
2598.076211353316
11
0.0
21
18000.0
31
0.0
0
LINE
8
ELEMENTS
10
3000.0
20
0.0
30
0.0
11
3000.0
21
6000.0
31
0.0
0
LINE
8
ELEMENTS
10
3000.0
20
0.0
30
0.0
11
3000.0
21
4500.0
31
2598.076211353316
0
LINE
8
ELEMENTS
10
3000.0
20
4500.0
30
2598.076211353316
11
3000.0
21
6000.0
31
0.0
0
LINE
8
ELEMENTS
10
3000.0
20
4500.0
30
2598.076211353316
11
3000.0
21
9000.0
31
5196.152422706632
0
LINE
8
ELEMENTS
10
3000.0
20
6000.0
30
0.0
11
3000.0
21
9000.0
31
5196.152422706632
0
LINE
8
ELEMENTS
10
3000.0
20
6000.0
30
0.0
11
3000.0
21
12000.0
31
0.0
0
LINE
8
ELEMENTS
10
3000.0
20
9000.0
30
5196.152422706632
11
3000.0
21
12000.0
31
0.0
0
LINE
8
ELEMENTS
10
3000.0
20
9000.0
30
5196.152422706632
11
3000.0
21
13500.0
31
2598.076211353316
0
LINE
8
ELEMENTS
10
3000.0
20
12000.0
30
0.0
11
3000.0
21
13500.0
31
2598.076211353316
0
LINE
8
ELEMENTS
10
3000.0
20
12000.0
30
0.0
11
3000.0
21
18000.0
31
0.0
0
LINE
8
ELEMENTS
10
3000.0
20
13500.0
30
2598.076211353316
11
3000.0
21
18000.0
31
0.0
0
LINE
8
ELEMENTS
10
0.0
20
0.0
30
0.0
11
3000.0
21
0.0
31
0.0
0
LINE
8
ELEMENTS
10
0.0
20
4500.0
30
2598.076211353316
11
3000.0
21
4500.0
31
2598.076211353316
0
LINE
8
ELEMENTS
10
0.0
20
6000.0
30
0.0
11
3000.0
21
6000.0
31
0.0
0
LINE
8
ELEMENTS
10
0.0
20
9000.0
30
5196.152422706632
11
3000.0
21
9000.0
31
5196.152422706632
0
LINE
8
ELEMENTS
10
0.0
20
12000.0
30
0.0
11
3000.0
21
12000.0
31
0.0
0
LINE
8
ELEMENTS
10
0.0
20
13500.0
30
2598.076211353316
11
3000.0
21
13500.0
31
2598.076211353316
0
LINE
8
ELEMENTS
10
0.0
20
18000.0
30
0.0
11
3000.0
21
18000.0
31
0.0
0
LINE
8
ELEMENTS
10
0.0
20
0.0
30
0.0
11
3000.0
21
4500.0
31
2598.076211353316
0
LINE
8
ELEMENTS
10
3000.0
20
0.0
30
0.0
11
0.0
21
4500.0
31
2598.076211353316
0
LINE
8
ELEMENTS
10
0.0
20
0.0
30
0.0
11
3000.0
21
6000.0
31
0.0
0
LINE
8
ELEMENTS
10
3000.0
20
0.0
30
0.0
11
0.0
21
6000.0
31
0.0
0
LINE
8
ELEMENTS
10
0.0
20
4500.0
30
2598.076211353316
11
3000.0
21
9000.0
31
5196.152422706632
0
LINE
8
ELEMENTS
10
3000.0
20
4500.0
30
2598.076211353316
11
0.0
21
9000.0
31
5196.152422706632
0
LINE
8
ELEMENTS
10
0.0
20
6000.0
30
0.0
11
3000.0
21
12000.0
31
0.0
0
LINE
8
ELEMENTS
10
3000.0
20
6000.0
30
0.0
11
0.0
21
12000.0
31
0.0
0
LINE
8
ELEMENTS
10
0.0
20
9000.0
30
5196.152422706632
11
3000.0
21
13500.0
31
2598.076211353316
0
LINE
8
ELEMENTS
10
3000.0
20
9000.0
30
5196.152422706632
11
0.0
21
13500.0
31
2598.076211353316
0
LINE
8
ELEMENTS
10
0.0
20
12000.0
30
0.0
11
3000.0
21
18000.0
31
0.0
0
LINE
8
ELEMENTS
10
3000.0
20
12000.0
30
0.0
11
0.0
21
18000.0
31
0.0
0
LINE
8
ELEMENTS
10
0.0
20
13500.0
30
2598.076211353316
11
3000.0
21
18000.0
31
0.0
0
LINE
8
ELEMENTS
10
3000.0
20
13500.0
30
2598.076211353316
11
0.0
21
18000.0
31
0.0
0
ENDSEC
0
EOF
